<?xml version="1.0" encoding="iso-8859-1"?>
<!-- Generator: Adobe Illustrator 19.0.0, SVG Export Plug-In . SVG Version: 6.00 Build 0)  -->
<svg version="1.1" id="Capa_1" xmlns="http://www.w3.org/2000/svg" xmlns:xlink="http://www.w3.org/1999/xlink" x="0px" y="0px"
	 viewBox="0 0 512 512" style="enable-background:new 0 0 512 512;" xml:space="preserve">
<g>
	<g>
		<path d="M256,91c-90.981,0-165,74.019-165,165s74.019,165,165,165s165-74.019,165-165S346.981,91,256,91z M331,226h-30v-15
			c0-16.538-13.462-30-30-30v60c33.091,0,60,26.909,60,60s-26.909,60-60,60v30h-30v-30c-33.091,0-60-26.909-60-60v-15h30v15
			c0,16.538,13.462,30,30,30v-60c-33.091,0-60-26.909-60-60s26.909-60,60-60v-30h30v30c33.091,0,60,26.909,60,60V226z"/>
	</g>
</g>
<g>
	<g>
		<path d="M211,211c0,16.538,13.462,30,30,30v-60C224.462,181,211,194.462,211,211z"/>
	</g>
</g>
<g>
	<g>
		<path d="M271,271v60c16.538,0,30-13.462,30-30C301,284.462,287.538,271,271,271z"/>
	</g>
</g>
<g>
	<g>
		<path d="M256,0C115.39,0,0,115.39,0,256s115.39,256,256,256s256-115.39,256-256S396.61,0,256,0z M256,451
			c-107.52,0-195-87.48-195-195S148.48,61,256,61s195,87.48,195,195S363.52,451,256,451z"/>
	</g>
</g>
<g>
</g>
<g>
</g>
<g>
</g>
<g>
</g>
<g>
</g>
<g>
</g>
<g>
</g>
<g>
</g>
<g>
</g>
<g>
</g>
<g>
</g>
<g>
</g>
<g>
</g>
<g>
</g>
<g>
</g>
</svg>
