<?xml version="1.0" encoding="iso-8859-1"?>
<!-- Generator: Adobe Illustrator 19.0.0, SVG Export Plug-In . SVG Version: 6.00 Build 0)  -->
<svg version="1.1" id="Capa_1" xmlns="http://www.w3.org/2000/svg" xmlns:xlink="http://www.w3.org/1999/xlink" x="0px" y="0px"
	 viewBox="0 0 512 512" style="enable-background:new 0 0 512 512;" xml:space="preserve">
<g>
	<g>
		<path d="M256,0C114.624,0,0,114.624,0,256s114.624,256,256,256s256-114.624,256-256S397.376,0,256,0z M176,368
			c0,8.832-7.168,16-16,16c-8.832,0-16-7.168-16-16V144c0-8.832,7.168-16,16-16h80c35.296,0,64,28.704,64,64v96
			c0,8.832-7.168,16-16,16c-8.832,0-16-7.168-16-16v-96c0-17.632-14.368-32-32-32h-64V368z M368,320c0,35.296-28.704,64-64,64h-80
			c-8.832,0-16-7.168-16-16V224c0-8.832,7.168-16,16-16c8.832,0,16,7.168,16,16v128h64c17.664,0,32-14.336,32-32V144
			c0-8.832,7.168-16,16-16c8.832,0,16,7.168,16,16V320z"/>
	</g>
</g>
<g>
</g>
<g>
</g>
<g>
</g>
<g>
</g>
<g>
</g>
<g>
</g>
<g>
</g>
<g>
</g>
<g>
</g>
<g>
</g>
<g>
</g>
<g>
</g>
<g>
</g>
<g>
</g>
<g>
</g>
</svg>
